<?xml version="1.0" encoding="utf-8" ?>
<svg baseProfile="full" height="78mm" version="1.1" viewBox="0,0,200,78" width="200mm" xmlns="http://www.w3.org/2000/svg" xmlns:ev="http://www.w3.org/2001/xml-events" xmlns:xlink="http://www.w3.org/1999/xlink"><defs /><rect fill="#222222" height="78" width="200" x="0" y="0" /><text fill="#FFFFFF" style="font-size:12px; font-family:Arial; font-weight:bold;" x="10" y="20">beepblop Duolingo</text><text dominant-baseline="hanging" fill="#FFFFFF" style="font-size:10.0px; font-family:Arial;" x="10" y="30">2023</text><text dominant-baseline="hanging" fill="#FFFFFF" style="font-size:4.125px; font-family:Arial;" x="175" y="35">31284 XP</text><text fill="#FFFFFF" style="font-size:2.5px; font-family:Arial" x="10.0" y="44">Jan</text><text fill="#FFFFFF" style="font-size:2.5px; font-family:Arial" x="25.5" y="44">Feb</text><text fill="#FFFFFF" style="font-size:2.5px; font-family:Arial" x="41.0" y="44">Mar</text><text fill="#FFFFFF" style="font-size:2.5px; font-family:Arial" x="56.5" y="44">Apr</text><text fill="#FFFFFF" style="font-size:2.5px; font-family:Arial" x="72.0" y="44">May</text><text fill="#FFFFFF" style="font-size:2.5px; font-family:Arial" x="87.5" y="44">Jun</text><text fill="#FFFFFF" style="font-size:2.5px; font-family:Arial" x="103.0" y="44">Jul</text><text fill="#FFFFFF" style="font-size:2.5px; font-family:Arial" x="118.5" y="44">Aug</text><text fill="#FFFFFF" style="font-size:2.5px; font-family:Arial" x="134.0" y="44">Sep</text><text fill="#FFFFFF" style="font-size:2.5px; font-family:Arial" x="149.5" y="44">Oct</text><text fill="#FFFFFF" style="font-size:2.5px; font-family:Arial" x="165.0" y="44">Nov</text><text fill="#FFFFFF" style="font-size:2.5px; font-family:Arial" x="180.5" y="44">Dec</text><rect fill="#444444" height="2.6" width="2.6" x="10.0" y="45.5"><title>2022-12-26</title></rect><rect fill="#444444" height="2.6" width="2.6" x="10.0" y="49.0"><title>2022-12-27</title></rect><rect fill="#444444" height="2.6" width="2.6" x="10.0" y="52.5"><title>2022-12-28</title></rect><rect fill="#444444" height="2.6" width="2.6" x="10.0" y="56.0"><title>2022-12-29</title></rect><rect fill="#444444" height="2.6" width="2.6" x="10.0" y="59.5"><title>2022-12-30</title></rect><rect fill="#444444" height="2.6" width="2.6" x="10.0" y="63.0"><title>2022-12-31</title></rect><rect fill="red" height="2.6" width="2.6" x="10.0" y="66.5"><title>2023-01-01 495 XP</title></rect><rect fill="red" height="2.6" width="2.6" x="13.5" y="45.5"><title>2023-01-02 617 XP</title></rect><rect fill="#46fffb" height="2.6" width="2.6" x="13.5" y="49.0"><title>2023-01-03 153 XP</title></rect><rect fill="#4aeaff" height="2.6" width="2.6" x="13.5" y="52.5"><title>2023-01-04 82 XP</title></rect><rect fill="#4be2ff" height="2.6" width="2.6" x="13.5" y="56.0"><title>2023-01-05 58 XP</title></rect><rect fill="#4be0ff" height="2.6" width="2.6" x="13.5" y="59.5"><title>2023-01-06 51 XP</title></rect><rect fill="#4dd3ff" height="2.6" width="2.6" x="13.5" y="63.0"><title>2023-01-07 14 XP</title></rect><rect fill="#ffe000" height="2.6" width="2.6" x="13.5" y="66.5"><title>2023-01-08 213 XP</title></rect><rect fill="#ffe200" height="2.6" width="2.6" x="17.0" y="45.5"><title>2023-01-09 202 XP</title></rect><rect fill="#49f1ff" height="2.6" width="2.6" x="17.0" y="49.0"><title>2023-01-10 102 XP</title></rect><rect fill="#ffd900" height="2.6" width="2.6" x="17.0" y="52.5"><title>2023-01-11 259 XP</title></rect><rect fill="#4dd4ff" height="2.6" width="2.6" x="17.0" y="56.0"><title>2023-01-12 15 XP</title></rect><rect fill="#4dd3ff" height="2.6" width="2.6" x="17.0" y="59.5"><title>2023-01-13 14 XP</title></rect><rect fill="#46fff7" height="2.6" width="2.6" x="17.0" y="63.0"><title>2023-01-14 164 XP</title></rect><rect fill="#ffc900" height="2.6" width="2.6" x="17.0" y="66.5"><title>2023-01-15 363 XP</title></rect><rect fill="#4be2ff" height="2.6" width="2.6" x="20.5" y="45.5"><title>2023-01-16 58 XP</title></rect><rect fill="#4dd4ff" height="2.6" width="2.6" x="20.5" y="49.0"><title>2023-01-17 15 XP</title></rect><rect fill="#46fff3" height="2.6" width="2.6" x="20.5" y="52.5"><title>2023-01-18 173 XP</title></rect><rect fill="#4dd4ff" height="2.6" width="2.6" x="20.5" y="56.0"><title>2023-01-19 15 XP</title></rect><rect fill="#ffc500" height="2.6" width="2.6" x="20.5" y="59.5"><title>2023-01-20 391 XP</title></rect><rect fill="#ffdc00" height="2.6" width="2.6" x="20.5" y="63.0"><title>2023-01-21 239 XP</title></rect><rect fill="#4bdeff" height="2.6" width="2.6" x="20.5" y="66.5"><title>2023-01-22 47 XP</title></rect><rect fill="#4dd4ff" height="2.6" width="2.6" x="24.0" y="45.5"><title>2023-01-23 15 XP</title></rect><rect fill="#4dd3ff" height="2.6" width="2.6" x="24.0" y="49.0"><title>2023-01-24 14 XP</title></rect><rect fill="#ffde00" height="2.6" width="2.6" x="24.0" y="52.5"><title>2023-01-25 230 XP</title></rect><rect fill="#4cdcff" height="2.6" width="2.6" x="24.0" y="56.0"><title>2023-01-26 40 XP</title></rect><rect fill="#46fff3" height="2.6" width="2.6" x="24.0" y="59.5"><title>2023-01-27 173 XP</title></rect><rect fill="#47fffd" height="2.6" width="2.6" x="24.0" y="63.0"><title>2023-01-28 147 XP</title></rect><rect fill="#ffe600" height="2.6" width="2.6" x="24.0" y="66.5"><title>2023-01-29 174 XP</title></rect><rect fill="#4bdeff" height="2.6" width="2.6" x="27.5" y="45.5"><title>2023-01-30 45 XP</title></rect><rect fill="#4cdaff" height="2.6" width="2.6" x="27.5" y="49.0"><title>2023-01-31 35 XP</title></rect><rect fill="red" height="2.6" width="2.6" x="27.5" y="52.5"><title>2023-02-01 555 XP</title></rect><rect fill="#4dd4ff" height="2.6" width="2.6" x="27.5" y="56.0"><title>2023-02-02 15 XP</title></rect><rect fill="#4dd3ff" height="2.6" width="2.6" x="27.5" y="59.5"><title>2023-02-03 14 XP</title></rect><rect fill="#4dd4ff" height="2.6" width="2.6" x="27.5" y="63.0"><title>2023-02-04 15 XP</title></rect><rect fill="#4dd4ff" height="2.6" width="2.6" x="27.5" y="66.5"><title>2023-02-05 15 XP</title></rect><rect fill="#4dd5ff" height="2.6" width="2.6" x="31.0" y="45.5"><title>2023-02-06 20 XP</title></rect><rect fill="#4bddff" height="2.6" width="2.6" x="31.0" y="49.0"><title>2023-02-07 43 XP</title></rect><rect fill="#ffd100" height="2.6" width="2.6" x="31.0" y="52.5"><title>2023-02-08 314 XP</title></rect><rect fill="#4be1ff" height="2.6" width="2.6" x="31.0" y="56.0"><title>2023-02-09 55 XP</title></rect><rect fill="#4dd4ff" height="2.6" width="2.6" x="31.0" y="59.5"><title>2023-02-10 15 XP</title></rect><rect fill="#4ae5ff" height="2.6" width="2.6" x="31.0" y="63.0"><title>2023-02-11 65 XP</title></rect><rect fill="#4dd4ff" height="2.6" width="2.6" x="31.0" y="66.5"><title>2023-02-12 15 XP</title></rect><rect fill="#4dd4ff" height="2.6" width="2.6" x="34.5" y="45.5"><title>2023-02-13 15 XP</title></rect><rect fill="#4dd3ff" height="2.6" width="2.6" x="34.5" y="49.0"><title>2023-02-14 14 XP</title></rect><rect fill="#4dd4ff" height="2.6" width="2.6" x="34.5" y="52.5"><title>2023-02-15 15 XP</title></rect><rect fill="#ffe100" height="2.6" width="2.6" x="34.5" y="56.0"><title>2023-02-16 206 XP</title></rect><rect fill="#4aecff" height="2.6" width="2.6" x="34.5" y="59.5"><title>2023-02-17 86 XP</title></rect><rect fill="#4cd8ff" height="2.6" width="2.6" x="34.5" y="63.0"><title>2023-02-18 28 XP</title></rect><rect fill="#4cddff" height="2.6" width="2.6" x="34.5" y="66.5"><title>2023-02-19 42 XP</title></rect><rect fill="#49eeff" height="2.6" width="2.6" x="38.0" y="45.5"><title>2023-02-20 92 XP</title></rect><rect fill="#47fffb" height="2.6" width="2.6" x="38.0" y="49.0"><title>2023-02-21 151 XP</title></rect><rect fill="#46fffb" height="2.6" width="2.6" x="38.0" y="52.5"><title>2023-02-22 153 XP</title></rect><rect fill="#49eeff" height="2.6" width="2.6" x="38.0" y="56.0"><title>2023-02-23 93 XP</title></rect><rect fill="#4cd9ff" height="2.6" width="2.6" x="38.0" y="59.5"><title>2023-02-24 30 XP</title></rect><rect fill="#444444" height="2.6" width="2.6" x="38.0" y="63.0"><title>2023-02-25</title></rect><rect fill="#ffcd00" height="2.6" width="2.6" x="38.0" y="66.5"><title>2023-02-26 339 XP</title></rect><rect fill="red" height="2.6" width="2.6" x="41.5" y="45.5"><title>2023-02-27 409 XP</title></rect><rect fill="#4dd3ff" height="2.6" width="2.6" x="41.5" y="49.0"><title>2023-02-28 14 XP</title></rect><rect fill="#444444" height="2.6" width="2.6" x="41.5" y="52.5"><title>2023-03-01</title></rect><rect fill="#4dd5ff" height="2.6" width="2.6" x="41.5" y="56.0"><title>2023-03-02 20 XP</title></rect><rect fill="#444444" height="2.6" width="2.6" x="41.5" y="59.5"><title>2023-03-03</title></rect><rect fill="#4cd6ff" height="2.6" width="2.6" x="41.5" y="63.0"><title>2023-03-04 21 XP</title></rect><rect fill="#4be4ff" height="2.6" width="2.6" x="41.5" y="66.5"><title>2023-03-05 62 XP</title></rect><rect fill="#444444" height="2.6" width="2.6" x="45.0" y="45.5"><title>2023-03-06</title></rect><rect fill="#ffdf00" height="2.6" width="2.6" x="45.0" y="49.0"><title>2023-03-07 222 XP</title></rect><rect fill="#4ae6ff" height="2.6" width="2.6" x="45.0" y="52.5"><title>2023-03-08 70 XP</title></rect><rect fill="#444444" height="2.6" width="2.6" x="45.0" y="56.0"><title>2023-03-09</title></rect><rect fill="#48f7ff" height="2.6" width="2.6" x="45.0" y="59.5"><title>2023-03-10 119 XP</title></rect><rect fill="#444444" height="2.6" width="2.6" x="45.0" y="63.0"><title>2023-03-11</title></rect><rect fill="#444444" height="2.6" width="2.6" x="45.0" y="66.5"><title>2023-03-12</title></rect><rect fill="#444444" height="2.6" width="2.6" x="48.5" y="45.5"><title>2023-03-13</title></rect><rect fill="#444444" height="2.6" width="2.6" x="48.5" y="49.0"><title>2023-03-14</title></rect><rect fill="#444444" height="2.6" width="2.6" x="48.5" y="52.5"><title>2023-03-15</title></rect><rect fill="#444444" height="2.6" width="2.6" x="48.5" y="56.0"><title>2023-03-16</title></rect><rect fill="#444444" height="2.6" width="2.6" x="48.5" y="59.5"><title>2023-03-17</title></rect><rect fill="#444444" height="2.6" width="2.6" x="48.5" y="63.0"><title>2023-03-18</title></rect><rect fill="#444444" height="2.6" width="2.6" x="48.5" y="66.5"><title>2023-03-19</title></rect><rect fill="#444444" height="2.6" width="2.6" x="52.0" y="45.5"><title>2023-03-20</title></rect><rect fill="#444444" height="2.6" width="2.6" x="52.0" y="49.0"><title>2023-03-21</title></rect><rect fill="#444444" height="2.6" width="2.6" x="52.0" y="52.5"><title>2023-03-22</title></rect><rect fill="#444444" height="2.6" width="2.6" x="52.0" y="56.0"><title>2023-03-23</title></rect><rect fill="#444444" height="2.6" width="2.6" x="52.0" y="59.5"><title>2023-03-24</title></rect><rect fill="#444444" height="2.6" width="2.6" x="52.0" y="63.0"><title>2023-03-25</title></rect><rect fill="#444444" height="2.6" width="2.6" x="52.0" y="66.5"><title>2023-03-26</title></rect><rect fill="#444444" height="2.6" width="2.6" x="55.5" y="45.5"><title>2023-03-27</title></rect><rect fill="#444444" height="2.6" width="2.6" x="55.5" y="49.0"><title>2023-03-28</title></rect><rect fill="#444444" height="2.6" width="2.6" x="55.5" y="52.5"><title>2023-03-29</title></rect><rect fill="#444444" height="2.6" width="2.6" x="55.5" y="56.0"><title>2023-03-30</title></rect><rect fill="#444444" height="2.6" width="2.6" x="55.5" y="59.5"><title>2023-03-31</title></rect><rect fill="#444444" height="2.6" width="2.6" x="55.5" y="63.0"><title>2023-04-01</title></rect><rect fill="#444444" height="2.6" width="2.6" x="55.5" y="66.5"><title>2023-04-02</title></rect><rect fill="#444444" height="2.6" width="2.6" x="59.0" y="45.5"><title>2023-04-03</title></rect><rect fill="#444444" height="2.6" width="2.6" x="59.0" y="49.0"><title>2023-04-04</title></rect><rect fill="#444444" height="2.6" width="2.6" x="59.0" y="52.5"><title>2023-04-05</title></rect><rect fill="#444444" height="2.6" width="2.6" x="59.0" y="56.0"><title>2023-04-06</title></rect><rect fill="#444444" height="2.6" width="2.6" x="59.0" y="59.5"><title>2023-04-07</title></rect><rect fill="#444444" height="2.6" width="2.6" x="59.0" y="63.0"><title>2023-04-08</title></rect><rect fill="#444444" height="2.6" width="2.6" x="59.0" y="66.5"><title>2023-04-09</title></rect><rect fill="#444444" height="2.6" width="2.6" x="62.5" y="45.5"><title>2023-04-10</title></rect><rect fill="#444444" height="2.6" width="2.6" x="62.5" y="49.0"><title>2023-04-11</title></rect><rect fill="#444444" height="2.6" width="2.6" x="62.5" y="52.5"><title>2023-04-12</title></rect><rect fill="#444444" height="2.6" width="2.6" x="62.5" y="56.0"><title>2023-04-13</title></rect><rect fill="#444444" height="2.6" width="2.6" x="62.5" y="59.5"><title>2023-04-14</title></rect><rect fill="#444444" height="2.6" width="2.6" x="62.5" y="63.0"><title>2023-04-15</title></rect><rect fill="#444444" height="2.6" width="2.6" x="62.5" y="66.5"><title>2023-04-16</title></rect><rect fill="#444444" height="2.6" width="2.6" x="66.0" y="45.5"><title>2023-04-17</title></rect><rect fill="#444444" height="2.6" width="2.6" x="66.0" y="49.0"><title>2023-04-18</title></rect><rect fill="#444444" height="2.6" width="2.6" x="66.0" y="52.5"><title>2023-04-19</title></rect><rect fill="#444444" height="2.6" width="2.6" x="66.0" y="56.0"><title>2023-04-20</title></rect><rect fill="#444444" height="2.6" width="2.6" x="66.0" y="59.5"><title>2023-04-21</title></rect><rect fill="#444444" height="2.6" width="2.6" x="66.0" y="63.0"><title>2023-04-22</title></rect><rect fill="#444444" height="2.6" width="2.6" x="66.0" y="66.5"><title>2023-04-23</title></rect><rect fill="#444444" height="2.6" width="2.6" x="69.5" y="45.5"><title>2023-04-24</title></rect><rect fill="#444444" height="2.6" width="2.6" x="69.5" y="49.0"><title>2023-04-25</title></rect><rect fill="#444444" height="2.6" width="2.6" x="69.5" y="52.5"><title>2023-04-26</title></rect><rect fill="#444444" height="2.6" width="2.6" x="69.5" y="56.0"><title>2023-04-27</title></rect><rect fill="#444444" height="2.6" width="2.6" x="69.5" y="59.5"><title>2023-04-28</title></rect><rect fill="#444444" height="2.6" width="2.6" x="69.5" y="63.0"><title>2023-04-29</title></rect><rect fill="#444444" height="2.6" width="2.6" x="69.5" y="66.5"><title>2023-04-30</title></rect><rect fill="#444444" height="2.6" width="2.6" x="73.0" y="45.5"><title>2023-05-01</title></rect><rect fill="#444444" height="2.6" width="2.6" x="73.0" y="49.0"><title>2023-05-02</title></rect><rect fill="#444444" height="2.6" width="2.6" x="73.0" y="52.5"><title>2023-05-03</title></rect><rect fill="#444444" height="2.6" width="2.6" x="73.0" y="56.0"><title>2023-05-04</title></rect><rect fill="#444444" height="2.6" width="2.6" x="73.0" y="59.5"><title>2023-05-05</title></rect><rect fill="#444444" height="2.6" width="2.6" x="73.0" y="63.0"><title>2023-05-06</title></rect><rect fill="#444444" height="2.6" width="2.6" x="73.0" y="66.5"><title>2023-05-07</title></rect><rect fill="#444444" height="2.6" width="2.6" x="76.5" y="45.5"><title>2023-05-08</title></rect><rect fill="#444444" height="2.6" width="2.6" x="76.5" y="49.0"><title>2023-05-09</title></rect><rect fill="#444444" height="2.6" width="2.6" x="76.5" y="52.5"><title>2023-05-10</title></rect><rect fill="#444444" height="2.6" width="2.6" x="76.5" y="56.0"><title>2023-05-11</title></rect><rect fill="#444444" height="2.6" width="2.6" x="76.5" y="59.5"><title>2023-05-12</title></rect><rect fill="#444444" height="2.6" width="2.6" x="76.5" y="63.0"><title>2023-05-13</title></rect><rect fill="#444444" height="2.6" width="2.6" x="76.5" y="66.5"><title>2023-05-14</title></rect><rect fill="#444444" height="2.6" width="2.6" x="80.0" y="45.5"><title>2023-05-15</title></rect><rect fill="#444444" height="2.6" width="2.6" x="80.0" y="49.0"><title>2023-05-16</title></rect><rect fill="#444444" height="2.6" width="2.6" x="80.0" y="52.5"><title>2023-05-17</title></rect><rect fill="#444444" height="2.6" width="2.6" x="80.0" y="56.0"><title>2023-05-18</title></rect><rect fill="#444444" height="2.6" width="2.6" x="80.0" y="59.5"><title>2023-05-19</title></rect><rect fill="#444444" height="2.6" width="2.6" x="80.0" y="63.0"><title>2023-05-20</title></rect><rect fill="#444444" height="2.6" width="2.6" x="80.0" y="66.5"><title>2023-05-21</title></rect><rect fill="#444444" height="2.6" width="2.6" x="83.5" y="45.5"><title>2023-05-22</title></rect><rect fill="#444444" height="2.6" width="2.6" x="83.5" y="49.0"><title>2023-05-23</title></rect><rect fill="#444444" height="2.6" width="2.6" x="83.5" y="52.5"><title>2023-05-24</title></rect><rect fill="#444444" height="2.6" width="2.6" x="83.5" y="56.0"><title>2023-05-25</title></rect><rect fill="#444444" height="2.6" width="2.6" x="83.5" y="59.5"><title>2023-05-26</title></rect><rect fill="#444444" height="2.6" width="2.6" x="83.5" y="63.0"><title>2023-05-27</title></rect><rect fill="#444444" height="2.6" width="2.6" x="83.5" y="66.5"><title>2023-05-28</title></rect><rect fill="#444444" height="2.6" width="2.6" x="87.0" y="45.5"><title>2023-05-29</title></rect><rect fill="#444444" height="2.6" width="2.6" x="87.0" y="49.0"><title>2023-05-30</title></rect><rect fill="#444444" height="2.6" width="2.6" x="87.0" y="52.5"><title>2023-05-31</title></rect><rect fill="#444444" height="2.6" width="2.6" x="87.0" y="56.0"><title>2023-06-01</title></rect><rect fill="#444444" height="2.6" width="2.6" x="87.0" y="59.5"><title>2023-06-02</title></rect><rect fill="#444444" height="2.6" width="2.6" x="87.0" y="63.0"><title>2023-06-03</title></rect><rect fill="#444444" height="2.6" width="2.6" x="87.0" y="66.5"><title>2023-06-04</title></rect><rect fill="#444444" height="2.6" width="2.6" x="90.5" y="45.5"><title>2023-06-05</title></rect><rect fill="#444444" height="2.6" width="2.6" x="90.5" y="49.0"><title>2023-06-06</title></rect><rect fill="#444444" height="2.6" width="2.6" x="90.5" y="52.5"><title>2023-06-07</title></rect><rect fill="#444444" height="2.6" width="2.6" x="90.5" y="56.0"><title>2023-06-08</title></rect><rect fill="#444444" height="2.6" width="2.6" x="90.5" y="59.5"><title>2023-06-09</title></rect><rect fill="#444444" height="2.6" width="2.6" x="90.5" y="63.0"><title>2023-06-10</title></rect><rect fill="#444444" height="2.6" width="2.6" x="90.5" y="66.5"><title>2023-06-11</title></rect><rect fill="#444444" height="2.6" width="2.6" x="94.0" y="45.5"><title>2023-06-12</title></rect><rect fill="#444444" height="2.6" width="2.6" x="94.0" y="49.0"><title>2023-06-13</title></rect><rect fill="#444444" height="2.6" width="2.6" x="94.0" y="52.5"><title>2023-06-14</title></rect><rect fill="#444444" height="2.6" width="2.6" x="94.0" y="56.0"><title>2023-06-15</title></rect><rect fill="#444444" height="2.6" width="2.6" x="94.0" y="59.5"><title>2023-06-16</title></rect><rect fill="#444444" height="2.6" width="2.6" x="94.0" y="63.0"><title>2023-06-17</title></rect><rect fill="#444444" height="2.6" width="2.6" x="94.0" y="66.5"><title>2023-06-18</title></rect><rect fill="#444444" height="2.6" width="2.6" x="97.5" y="45.5"><title>2023-06-19</title></rect><rect fill="#444444" height="2.6" width="2.6" x="97.5" y="49.0"><title>2023-06-20</title></rect><rect fill="#444444" height="2.6" width="2.6" x="97.5" y="52.5"><title>2023-06-21</title></rect><rect fill="#444444" height="2.6" width="2.6" x="97.5" y="56.0"><title>2023-06-22</title></rect><rect fill="#444444" height="2.6" width="2.6" x="97.5" y="59.5"><title>2023-06-23</title></rect><rect fill="#444444" height="2.6" width="2.6" x="97.5" y="63.0"><title>2023-06-24</title></rect><rect fill="#444444" height="2.6" width="2.6" x="97.5" y="66.5"><title>2023-06-25</title></rect><rect fill="#444444" height="2.6" width="2.6" x="101.0" y="45.5"><title>2023-06-26</title></rect><rect fill="#444444" height="2.6" width="2.6" x="101.0" y="49.0"><title>2023-06-27</title></rect><rect fill="#444444" height="2.6" width="2.6" x="101.0" y="52.5"><title>2023-06-28</title></rect><rect fill="#444444" height="2.6" width="2.6" x="101.0" y="56.0"><title>2023-06-29</title></rect><rect fill="#444444" height="2.6" width="2.6" x="101.0" y="59.5"><title>2023-06-30</title></rect><rect fill="#444444" height="2.6" width="2.6" x="101.0" y="63.0"><title>2023-07-01</title></rect><rect fill="#444444" height="2.6" width="2.6" x="101.0" y="66.5"><title>2023-07-02</title></rect><rect fill="#444444" height="2.6" width="2.6" x="104.5" y="45.5"><title>2023-07-03</title></rect><rect fill="#444444" height="2.6" width="2.6" x="104.5" y="49.0"><title>2023-07-04</title></rect><rect fill="#444444" height="2.6" width="2.6" x="104.5" y="52.5"><title>2023-07-05</title></rect><rect fill="#444444" height="2.6" width="2.6" x="104.5" y="56.0"><title>2023-07-06</title></rect><rect fill="#444444" height="2.6" width="2.6" x="104.5" y="59.5"><title>2023-07-07</title></rect><rect fill="#444444" height="2.6" width="2.6" x="104.5" y="63.0"><title>2023-07-08</title></rect><rect fill="#444444" height="2.6" width="2.6" x="104.5" y="66.5"><title>2023-07-09</title></rect><rect fill="#444444" height="2.6" width="2.6" x="108.0" y="45.5"><title>2023-07-10</title></rect><rect fill="#444444" height="2.6" width="2.6" x="108.0" y="49.0"><title>2023-07-11</title></rect><rect fill="#444444" height="2.6" width="2.6" x="108.0" y="52.5"><title>2023-07-12</title></rect><rect fill="#444444" height="2.6" width="2.6" x="108.0" y="56.0"><title>2023-07-13</title></rect><rect fill="#444444" height="2.6" width="2.6" x="108.0" y="59.5"><title>2023-07-14</title></rect><rect fill="#444444" height="2.6" width="2.6" x="108.0" y="63.0"><title>2023-07-15</title></rect><rect fill="#444444" height="2.6" width="2.6" x="108.0" y="66.5"><title>2023-07-16</title></rect><rect fill="#444444" height="2.6" width="2.6" x="111.5" y="45.5"><title>2023-07-17</title></rect><rect fill="#444444" height="2.6" width="2.6" x="111.5" y="49.0"><title>2023-07-18</title></rect><rect fill="#444444" height="2.6" width="2.6" x="111.5" y="52.5"><title>2023-07-19</title></rect><rect fill="#444444" height="2.6" width="2.6" x="111.5" y="56.0"><title>2023-07-20</title></rect><rect fill="#444444" height="2.6" width="2.6" x="111.5" y="59.5"><title>2023-07-21</title></rect><rect fill="#444444" height="2.6" width="2.6" x="111.5" y="63.0"><title>2023-07-22</title></rect><rect fill="#444444" height="2.6" width="2.6" x="111.5" y="66.5"><title>2023-07-23</title></rect><rect fill="#444444" height="2.6" width="2.6" x="115.0" y="45.5"><title>2023-07-24</title></rect><rect fill="#444444" height="2.6" width="2.6" x="115.0" y="49.0"><title>2023-07-25</title></rect><rect fill="#444444" height="2.6" width="2.6" x="115.0" y="52.5"><title>2023-07-26</title></rect><rect fill="#444444" height="2.6" width="2.6" x="115.0" y="56.0"><title>2023-07-27</title></rect><rect fill="#444444" height="2.6" width="2.6" x="115.0" y="59.5"><title>2023-07-28</title></rect><rect fill="#444444" height="2.6" width="2.6" x="115.0" y="63.0"><title>2023-07-29</title></rect><rect fill="#444444" height="2.6" width="2.6" x="115.0" y="66.5"><title>2023-07-30</title></rect><rect fill="#4dd5ff" height="2.6" width="2.6" x="118.5" y="45.5"><title>2023-07-31 18 XP</title></rect><rect fill="#444444" height="2.6" width="2.6" x="118.5" y="49.0"><title>2023-08-01</title></rect><rect fill="#444444" height="2.6" width="2.6" x="118.5" y="52.5"><title>2023-08-02</title></rect><rect fill="#444444" height="2.6" width="2.6" x="118.5" y="56.0"><title>2023-08-03</title></rect><rect fill="#48f9ff" height="2.6" width="2.6" x="118.5" y="59.5"><title>2023-08-04 123 XP</title></rect><rect fill="#4bdeff" height="2.6" width="2.6" x="118.5" y="63.0"><title>2023-08-05 46 XP</title></rect><rect fill="#4cd9ff" height="2.6" width="2.6" x="118.5" y="66.5"><title>2023-08-06 32 XP</title></rect><rect fill="#49f4ff" height="2.6" width="2.6" x="122.0" y="45.5"><title>2023-08-07 108 XP</title></rect><rect fill="#46fffa" height="2.6" width="2.6" x="122.0" y="49.0"><title>2023-08-08 154 XP</title></rect><rect fill="#4dd3ff" height="2.6" width="2.6" x="122.0" y="52.5"><title>2023-08-09 13 XP</title></rect><rect fill="#4dd2ff" height="2.6" width="2.6" x="122.0" y="56.0"><title>2023-08-10 10 XP</title></rect><rect fill="#4dd3ff" height="2.6" width="2.6" x="122.0" y="59.5"><title>2023-08-11 14 XP</title></rect><rect fill="#4dd2ff" height="2.6" width="2.6" x="122.0" y="63.0"><title>2023-08-12 10 XP</title></rect><rect fill="#4bdeff" height="2.6" width="2.6" x="122.0" y="66.5"><title>2023-08-13 45 XP</title></rect><rect fill="#444444" height="2.6" width="2.6" x="125.5" y="45.5"><title>2023-08-14</title></rect><rect fill="#ffd600" height="2.6" width="2.6" x="125.5" y="49.0"><title>2023-08-15 279 XP</title></rect><rect fill="#4dd3ff" height="2.6" width="2.6" x="125.5" y="52.5"><title>2023-08-16 12 XP</title></rect><rect fill="#4be0ff" height="2.6" width="2.6" x="125.5" y="56.0"><title>2023-08-17 53 XP</title></rect><rect fill="#444444" height="2.6" width="2.6" x="125.5" y="59.5"><title>2023-08-18</title></rect><rect fill="#4ae6ff" height="2.6" width="2.6" x="125.5" y="63.0"><title>2023-08-19 69 XP</title></rect><rect fill="#ffd500" height="2.6" width="2.6" x="125.5" y="66.5"><title>2023-08-20 284 XP</title></rect><rect fill="#4dd3ff" height="2.6" width="2.6" x="129.0" y="45.5"><title>2023-08-21 14 XP</title></rect><rect fill="#48f9ff" height="2.6" width="2.6" x="129.0" y="49.0"><title>2023-08-22 125 XP</title></rect><rect fill="#4dd4ff" height="2.6" width="2.6" x="129.0" y="52.5"><title>2023-08-23 15 XP</title></rect><rect fill="#49f0ff" height="2.6" width="2.6" x="129.0" y="56.0"><title>2023-08-24 97 XP</title></rect><rect fill="#47ffff" height="2.6" width="2.6" x="129.0" y="59.5"><title>2023-08-25 140 XP</title></rect><rect fill="#4be4ff" height="2.6" width="2.6" x="129.0" y="63.0"><title>2023-08-26 63 XP</title></rect><rect fill="#ffda00" height="2.6" width="2.6" x="129.0" y="66.5"><title>2023-08-27 254 XP</title></rect><rect fill="#4dd3ff" height="2.6" width="2.6" x="132.5" y="45.5"><title>2023-08-28 13 XP</title></rect><rect fill="red" height="2.6" width="2.6" x="132.5" y="49.0"><title>2023-08-29 408 XP</title></rect><rect fill="red" height="2.6" width="2.6" x="132.5" y="52.5"><title>2023-08-30 454 XP</title></rect><rect fill="red" height="2.6" width="2.6" x="132.5" y="56.0"><title>2023-08-31 443 XP</title></rect><rect fill="#ffd700" height="2.6" width="2.6" x="132.5" y="59.5"><title>2023-09-01 273 XP</title></rect><rect fill="#4be2ff" height="2.6" width="2.6" x="132.5" y="63.0"><title>2023-09-02 57 XP</title></rect><rect fill="#ffcf00" height="2.6" width="2.6" x="132.5" y="66.5"><title>2023-09-03 326 XP</title></rect><rect fill="red" height="2.6" width="2.6" x="136.0" y="45.5"><title>2023-09-04 669 XP</title></rect><rect fill="red" height="2.6" width="2.6" x="136.0" y="49.0"><title>2023-09-05 803 XP</title></rect><rect fill="#ffc800" height="2.6" width="2.6" x="136.0" y="52.5"><title>2023-09-06 371 XP</title></rect><rect fill="#4ae8ff" height="2.6" width="2.6" x="136.0" y="56.0"><title>2023-09-07 76 XP</title></rect><rect fill="#ffca00" height="2.6" width="2.6" x="136.0" y="59.5"><title>2023-09-08 358 XP</title></rect><rect fill="#ffd700" height="2.6" width="2.6" x="136.0" y="63.0"><title>2023-09-09 271 XP</title></rect><rect fill="#ffc800" height="2.6" width="2.6" x="136.0" y="66.5"><title>2023-09-10 375 XP</title></rect><rect fill="#47fffb" height="2.6" width="2.6" x="139.5" y="45.5"><title>2023-09-11 151 XP</title></rect><rect fill="#46fff5" height="2.6" width="2.6" x="139.5" y="49.0"><title>2023-09-12 169 XP</title></rect><rect fill="red" height="2.6" width="2.6" x="139.5" y="52.5"><title>2023-09-13 512 XP</title></rect><rect fill="red" height="2.6" width="2.6" x="139.5" y="56.0"><title>2023-09-14 574 XP</title></rect><rect fill="#ffe400" height="2.6" width="2.6" x="139.5" y="59.5"><title>2023-09-15 185 XP</title></rect><rect fill="red" height="2.6" width="2.6" x="139.5" y="63.0"><title>2023-09-16 1095 XP</title></rect><rect fill="#ffdf00" height="2.6" width="2.6" x="139.5" y="66.5"><title>2023-09-17 222 XP</title></rect><rect fill="red" height="2.6" width="2.6" x="143.0" y="45.5"><title>2023-09-18 430 XP</title></rect><rect fill="red" height="2.6" width="2.6" x="143.0" y="49.0"><title>2023-09-19 531 XP</title></rect><rect fill="#ffe500" height="2.6" width="2.6" x="143.0" y="52.5"><title>2023-09-20 181 XP</title></rect><rect fill="#48f8ff" height="2.6" width="2.6" x="143.0" y="56.0"><title>2023-09-21 120 XP</title></rect><rect fill="#ffca00" height="2.6" width="2.6" x="143.0" y="59.5"><title>2023-09-22 358 XP</title></rect><rect fill="#ffe300" height="2.6" width="2.6" x="143.0" y="63.0"><title>2023-09-23 196 XP</title></rect><rect fill="red" height="2.6" width="2.6" x="143.0" y="66.5"><title>2023-09-24 452 XP</title></rect><rect fill="#ffdd00" height="2.6" width="2.6" x="146.5" y="45.5"><title>2023-09-25 237 XP</title></rect><rect fill="#ffd000" height="2.6" width="2.6" x="146.5" y="49.0"><title>2023-09-26 322 XP</title></rect><rect fill="red" height="2.6" width="2.6" x="146.5" y="52.5"><title>2023-09-27 628 XP</title></rect><rect fill="#47fffc" height="2.6" width="2.6" x="146.5" y="56.0"><title>2023-09-28 148 XP</title></rect><rect fill="#ffe500" height="2.6" width="2.6" x="146.5" y="59.5"><title>2023-09-29 184 XP</title></rect><rect fill="red" height="2.6" width="2.6" x="146.5" y="63.0"><title>2023-09-30 527 XP</title></rect><rect fill="red" height="2.6" width="2.6" x="146.5" y="66.5"><title>2023-10-01 1689 XP</title></rect><rect fill="red" height="2.6" width="2.6" x="150.0" y="45.5"><title>2023-10-02 1033 XP</title></rect><rect fill="#ffd000" height="2.6" width="2.6" x="150.0" y="49.0"><title>2023-10-03 322 XP</title></rect><rect fill="#47fffc" height="2.6" width="2.6" x="150.0" y="52.5"><title>2023-10-04 148 XP</title></rect><rect fill="#48f8ff" height="2.6" width="2.6" x="150.0" y="56.0"><title>2023-10-05 120 XP</title></rect><rect fill="#47ffff" height="2.6" width="2.6" x="150.0" y="59.5"><title>2023-10-06 140 XP</title></rect><rect fill="#ffd900" height="2.6" width="2.6" x="150.0" y="63.0"><title>2023-10-07 260 XP</title></rect><rect fill="#48f8ff" height="2.6" width="2.6" x="150.0" y="66.5"><title>2023-10-08 120 XP</title></rect><rect fill="#4aeaff" height="2.6" width="2.6" x="153.5" y="45.5"><title>2023-10-09 80 XP</title></rect><rect fill="#ffe200" height="2.6" width="2.6" x="153.5" y="49.0"><title>2023-10-10 200 XP</title></rect><rect fill="#49f1ff" height="2.6" width="2.6" x="153.5" y="52.5"><title>2023-10-11 100 XP</title></rect><rect fill="#4aeaff" height="2.6" width="2.6" x="153.5" y="56.0"><title>2023-10-12 80 XP</title></rect><rect fill="#48f8ff" height="2.6" width="2.6" x="153.5" y="59.5"><title>2023-10-13 120 XP</title></rect><rect fill="#48f8ff" height="2.6" width="2.6" x="153.5" y="63.0"><title>2023-10-14 120 XP</title></rect><rect fill="#48f8ff" height="2.6" width="2.6" x="153.5" y="66.5"><title>2023-10-15 120 XP</title></rect><rect fill="#48f8ff" height="2.6" width="2.6" x="157.0" y="45.5"><title>2023-10-16 120 XP</title></rect><rect fill="#49f1ff" height="2.6" width="2.6" x="157.0" y="49.0"><title>2023-10-17 100 XP</title></rect><rect fill="#48f8ff" height="2.6" width="2.6" x="157.0" y="52.5"><title>2023-10-18 120 XP</title></rect><rect fill="#48f8ff" height="2.6" width="2.6" x="157.0" y="56.0"><title>2023-10-19 120 XP</title></rect><rect fill="#48f8ff" height="2.6" width="2.6" x="157.0" y="59.5"><title>2023-10-20 120 XP</title></rect><rect fill="#48f8ff" height="2.6" width="2.6" x="157.0" y="63.0"><title>2023-10-21 120 XP</title></rect><rect fill="#48f8ff" height="2.6" width="2.6" x="157.0" y="66.5"><title>2023-10-22 120 XP</title></rect><rect fill="#48f8ff" height="2.6" width="2.6" x="160.5" y="45.5"><title>2023-10-23 120 XP</title></rect><rect fill="#48f8ff" height="2.6" width="2.6" x="160.5" y="49.0"><title>2023-10-24 120 XP</title></rect><rect fill="#48f8ff" height="2.6" width="2.6" x="160.5" y="52.5"><title>2023-10-25 120 XP</title></rect><rect fill="#48f8ff" height="2.6" width="2.6" x="160.5" y="56.0"><title>2023-10-26 120 XP</title></rect><rect fill="#48f8ff" height="2.6" width="2.6" x="160.5" y="59.5"><title>2023-10-27 120 XP</title></rect><rect fill="#48f8ff" height="2.6" width="2.6" x="160.5" y="63.0"><title>2023-10-28 120 XP</title></rect><rect fill="#48f8ff" height="2.6" width="2.6" x="160.5" y="66.5"><title>2023-10-29 120 XP</title></rect><rect fill="#48f8ff" height="2.6" width="2.6" x="164.0" y="45.5"><title>2023-10-30 120 XP</title></rect><rect fill="#48f8ff" height="2.6" width="2.6" x="164.0" y="49.0"><title>2023-10-31 120 XP</title></rect><rect fill="#48f8ff" height="2.6" width="2.6" x="164.0" y="52.5"><title>2023-11-01 120 XP</title></rect><rect fill="#48f8ff" height="2.6" width="2.6" x="164.0" y="56.0"><title>2023-11-02 120 XP</title></rect><rect fill="#48f8ff" height="2.6" width="2.6" x="164.0" y="59.5"><title>2023-11-03 120 XP</title></rect><rect fill="#48f8ff" height="2.6" width="2.6" x="164.0" y="63.0"><title>2023-11-04 120 XP</title></rect><rect fill="#48f8ff" height="2.6" width="2.6" x="164.0" y="66.5"><title>2023-11-05 120 XP</title></rect><rect fill="#48f8ff" height="2.6" width="2.6" x="167.5" y="45.5"><title>2023-11-06 120 XP</title></rect><rect fill="#48f8ff" height="2.6" width="2.6" x="167.5" y="49.0"><title>2023-11-07 120 XP</title></rect><rect fill="#48f8ff" height="2.6" width="2.6" x="167.5" y="52.5"><title>2023-11-08 120 XP</title></rect><rect fill="#48f8ff" height="2.6" width="2.6" x="167.5" y="56.0"><title>2023-11-09 120 XP</title></rect><rect fill="#48f8ff" height="2.6" width="2.6" x="167.5" y="59.5"><title>2023-11-10 120 XP</title></rect><rect fill="#48f8ff" height="2.6" width="2.6" x="167.5" y="63.0"><title>2023-11-11 120 XP</title></rect><rect fill="#48f8ff" height="2.6" width="2.6" x="167.5" y="66.5"><title>2023-11-12 120 XP</title></rect><rect fill="#48f8ff" height="2.6" width="2.6" x="171.0" y="45.5"><title>2023-11-13 120 XP</title></rect><rect fill="#48f8ff" height="2.6" width="2.6" x="171.0" y="49.0"><title>2023-11-14 120 XP</title></rect><rect fill="#48f8ff" height="2.6" width="2.6" x="171.0" y="52.5"><title>2023-11-15 120 XP</title></rect><rect fill="#48f8ff" height="2.6" width="2.6" x="171.0" y="56.0"><title>2023-11-16 120 XP</title></rect><rect fill="#48f8ff" height="2.6" width="2.6" x="171.0" y="59.5"><title>2023-11-17 120 XP</title></rect><rect fill="#48f8ff" height="2.6" width="2.6" x="171.0" y="63.0"><title>2023-11-18 120 XP</title></rect><rect fill="#48f8ff" height="2.6" width="2.6" x="171.0" y="66.5"><title>2023-11-19 120 XP</title></rect><rect fill="#48f8ff" height="2.6" width="2.6" x="174.5" y="45.5"><title>2023-11-20 120 XP</title></rect><rect fill="#48f8ff" height="2.6" width="2.6" x="174.5" y="49.0"><title>2023-11-21 120 XP</title></rect><rect fill="#48f8ff" height="2.6" width="2.6" x="174.5" y="52.5"><title>2023-11-22 120 XP</title></rect><rect fill="#4cdcff" height="2.6" width="2.6" x="174.5" y="56.0"><title>2023-11-23 40 XP</title></rect><rect fill="#444444" height="2.6" width="2.6" x="174.5" y="59.5"><title>2023-11-24</title></rect><rect fill="#444444" height="2.6" width="2.6" x="174.5" y="63.0"><title>2023-11-25</title></rect><rect fill="#444444" height="2.6" width="2.6" x="174.5" y="66.5"><title>2023-11-26</title></rect><rect fill="#444444" height="2.6" width="2.6" x="178.0" y="45.5"><title>2023-11-27</title></rect><rect fill="#444444" height="2.6" width="2.6" x="178.0" y="49.0"><title>2023-11-28</title></rect><rect fill="#444444" height="2.6" width="2.6" x="178.0" y="52.5"><title>2023-11-29</title></rect><rect fill="#444444" height="2.6" width="2.6" x="178.0" y="56.0"><title>2023-11-30</title></rect><rect fill="#444444" height="2.6" width="2.6" x="178.0" y="59.5"><title>2023-12-01</title></rect><rect fill="#444444" height="2.6" width="2.6" x="178.0" y="63.0"><title>2023-12-02</title></rect><rect fill="#444444" height="2.6" width="2.6" x="178.0" y="66.5"><title>2023-12-03</title></rect><rect fill="#444444" height="2.6" width="2.6" x="181.5" y="45.5"><title>2023-12-04</title></rect><rect fill="#444444" height="2.6" width="2.6" x="181.5" y="49.0"><title>2023-12-05</title></rect><rect fill="#444444" height="2.6" width="2.6" x="181.5" y="52.5"><title>2023-12-06</title></rect><rect fill="#444444" height="2.6" width="2.6" x="181.5" y="56.0"><title>2023-12-07</title></rect><rect fill="#444444" height="2.6" width="2.6" x="181.5" y="59.5"><title>2023-12-08</title></rect><rect fill="#444444" height="2.6" width="2.6" x="181.5" y="63.0"><title>2023-12-09</title></rect><rect fill="#444444" height="2.6" width="2.6" x="181.5" y="66.5"><title>2023-12-10</title></rect><rect fill="#444444" height="2.6" width="2.6" x="185.0" y="45.5"><title>2023-12-11</title></rect><rect fill="#444444" height="2.6" width="2.6" x="185.0" y="49.0"><title>2023-12-12</title></rect><rect fill="#444444" height="2.6" width="2.6" x="185.0" y="52.5"><title>2023-12-13</title></rect><rect fill="#444444" height="2.6" width="2.6" x="185.0" y="56.0"><title>2023-12-14</title></rect><rect fill="#444444" height="2.6" width="2.6" x="185.0" y="59.5"><title>2023-12-15</title></rect><rect fill="#444444" height="2.6" width="2.6" x="185.0" y="63.0"><title>2023-12-16</title></rect><rect fill="#444444" height="2.6" width="2.6" x="185.0" y="66.5"><title>2023-12-17</title></rect><rect fill="#444444" height="2.6" width="2.6" x="188.5" y="45.5"><title>2023-12-18</title></rect><rect fill="#444444" height="2.6" width="2.6" x="188.5" y="49.0"><title>2023-12-19</title></rect><rect fill="#444444" height="2.6" width="2.6" x="188.5" y="52.5"><title>2023-12-20</title></rect><rect fill="#444444" height="2.6" width="2.6" x="188.5" y="56.0"><title>2023-12-21</title></rect><rect fill="#444444" height="2.6" width="2.6" x="188.5" y="59.5"><title>2023-12-22</title></rect><rect fill="#444444" height="2.6" width="2.6" x="188.5" y="63.0"><title>2023-12-23</title></rect><rect fill="#444444" height="2.6" width="2.6" x="188.5" y="66.5"><title>2023-12-24</title></rect><rect fill="#444444" height="2.6" width="2.6" x="192.0" y="45.5"><title>2023-12-25</title></rect><rect fill="#444444" height="2.6" width="2.6" x="192.0" y="49.0"><title>2023-12-26</title></rect><rect fill="#444444" height="2.6" width="2.6" x="192.0" y="52.5"><title>2023-12-27</title></rect><rect fill="#444444" height="2.6" width="2.6" x="192.0" y="56.0"><title>2023-12-28</title></rect><rect fill="#444444" height="2.6" width="2.6" x="192.0" y="59.5"><title>2023-12-29</title></rect><rect fill="#444444" height="2.6" width="2.6" x="192.0" y="63.0"><title>2023-12-30</title></rect><rect fill="#444444" height="2.6" width="2.6" x="192.0" y="66.5"><title>2023-12-31</title></rect></svg>